<mxfile host="app.diagrams.net" agent="Mozilla/5.0 (Windows NT 10.0; Win64; x64) AppleWebKit/537.36 (KHTML, like Gecko) Chrome/127.0.0.0 Safari/537.36" version="24.7.7">
  <diagram name="Page-1" id="HcbOClNnq-AerqVsJ-jB">
    <mxGraphModel dx="954" dy="592" grid="1" gridSize="10" guides="1" tooltips="1" connect="1" arrows="1" fold="1" page="1" pageScale="1" pageWidth="827" pageHeight="1169" math="0" shadow="0">
      <root>
        <mxCell id="0" />
        <mxCell id="1" parent="0" />
        <mxCell id="tb9DBhbaOKdRS57eEzsG-1" value="unable to resolve dependency tree" style="rounded=0;whiteSpace=wrap;html=1;" vertex="1" parent="1">
          <mxGeometry x="160" y="80" width="120" height="60" as="geometry" />
        </mxCell>
        <mxCell id="tb9DBhbaOKdRS57eEzsG-7" value="" style="edgeStyle=orthogonalEdgeStyle;rounded=0;orthogonalLoop=1;jettySize=auto;html=1;" edge="1" parent="1" source="tb9DBhbaOKdRS57eEzsG-2" target="tb9DBhbaOKdRS57eEzsG-6">
          <mxGeometry relative="1" as="geometry" />
        </mxCell>
        <mxCell id="tb9DBhbaOKdRS57eEzsG-2" value="Dev Dependencies are automatically installed on running&amp;nbsp;&lt;div&gt;npm install&lt;/div&gt;" style="rounded=1;whiteSpace=wrap;html=1;" vertex="1" parent="1">
          <mxGeometry x="90" y="240" width="120" height="60" as="geometry" />
        </mxCell>
        <mxCell id="tb9DBhbaOKdRS57eEzsG-5" value="" style="edgeStyle=orthogonalEdgeStyle;rounded=0;orthogonalLoop=1;jettySize=auto;html=1;" edge="1" parent="1" source="tb9DBhbaOKdRS57eEzsG-3" target="tb9DBhbaOKdRS57eEzsG-4">
          <mxGeometry relative="1" as="geometry" />
        </mxCell>
        <mxCell id="tb9DBhbaOKdRS57eEzsG-9" style="edgeStyle=orthogonalEdgeStyle;rounded=0;orthogonalLoop=1;jettySize=auto;html=1;" edge="1" parent="1" source="tb9DBhbaOKdRS57eEzsG-3" target="tb9DBhbaOKdRS57eEzsG-8">
          <mxGeometry relative="1" as="geometry" />
        </mxCell>
        <mxCell id="tb9DBhbaOKdRS57eEzsG-3" value="Peer dependencies are installed by modifying package.json" style="rounded=0;whiteSpace=wrap;html=1;" vertex="1" parent="1">
          <mxGeometry x="260" y="240" width="120" height="60" as="geometry" />
        </mxCell>
        <mxCell id="tb9DBhbaOKdRS57eEzsG-4" value="Peer dependency are only encountered when you are publishing your package" style="whiteSpace=wrap;html=1;rounded=0;" vertex="1" parent="1">
          <mxGeometry x="460" y="240" width="120" height="80" as="geometry" />
        </mxCell>
        <mxCell id="tb9DBhbaOKdRS57eEzsG-6" value="Installed in the development environment" style="whiteSpace=wrap;html=1;rounded=1;" vertex="1" parent="1">
          <mxGeometry x="90" y="380" width="120" height="60" as="geometry" />
        </mxCell>
        <mxCell id="tb9DBhbaOKdRS57eEzsG-8" value="Ironically in npm version 7 -&lt;div&gt;&lt;span style=&quot;background-color: rgb(126, 166, 224);&quot;&gt;automatic installation of peer dependencies are allowed&lt;/span&gt;&lt;/div&gt;" style="rounded=1;whiteSpace=wrap;html=1;" vertex="1" parent="1">
          <mxGeometry x="280" y="380" width="250" height="120" as="geometry" />
        </mxCell>
        <mxCell id="tb9DBhbaOKdRS57eEzsG-10" value="" style="rounded=0;whiteSpace=wrap;html=1;" vertex="1" parent="1">
          <mxGeometry x="540" y="80" width="120" height="60" as="geometry" />
        </mxCell>
      </root>
    </mxGraphModel>
  </diagram>
</mxfile>
